<svg width="108" height="29" viewBox="0 0 108 29" fill="none" xmlns="http://www.w3.org/2000/svg">
<path d="M1.38899 28.3372C0.989151 28.3372 0.665039 28.0131 0.665039 27.6132C0.665039 27.2134 0.989151 26.8893 1.38899 26.8893H11.3334C12.0316 26.8226 12.7245 26.8204 13.4212 26.8188C14.2731 26.8173 15.1326 26.8151 15.9906 26.6795C17.0054 26.5205 17.9535 26.2873 18.8243 25.8723C18.4297 25.2301 18.1291 24.4539 17.9542 23.5241C17.7225 22.3049 17.9617 20.957 18.4714 19.9127C18.7554 19.3318 19.1302 18.829 19.5664 18.4761C20.0601 18.0748 20.6288 17.8627 21.2384 17.9188C21.7215 17.9642 22.2009 18.1778 22.6553 18.5958C23.5837 19.4515 23.9146 20.4579 23.8623 21.4802C23.801 22.6509 23.2164 23.8141 22.4599 24.7554C22.0078 25.3181 21.5353 25.7883 21.0393 26.1814C21.3194 26.3805 21.6254 26.5358 21.9495 26.6478C22.628 26.8849 23.5238 26.9174 24.4514 26.8341C25.6979 26.7221 26.9859 26.4002 27.9289 26.0685C28.7687 25.774 29.5683 25.3734 30.3279 24.8016C30.156 24.476 29.997 24.1246 29.8501 23.7505C29.479 22.7971 29.1988 21.6786 29.0193 20.3747C28.6952 17.9991 29.1768 15.301 30.0492 13.5229C30.3945 12.8172 30.811 12.2386 31.2744 11.8547C31.8333 11.3912 32.4558 11.1928 33.1199 11.3428C33.65 11.4639 34.1695 11.813 34.6541 12.4378C35.6999 13.7857 36.0762 15.3524 36.0164 16.9306C35.946 18.8018 35.2622 20.6851 34.3716 22.2232C33.6916 23.3992 32.9715 24.3314 32.2111 25.0781C32.2815 25.1683 32.3542 25.2553 32.4261 25.3387C32.8692 25.8415 33.3053 26.1891 33.7779 26.4208C34.2572 26.6563 34.7964 26.7843 35.437 26.8494C37.2083 27.0266 38.8387 26.4874 40.357 25.3386C40.7492 25.0418 41.1332 24.7056 41.511 24.3307C41.408 24.1535 41.3066 23.9688 41.2089 23.7772C40.4834 22.355 39.9367 20.5581 39.6345 18.3416C39.2309 15.3813 39.8299 12.0214 40.9158 9.80866C41.3407 8.94234 41.8495 8.23431 42.4122 7.76558C43.071 7.21884 43.8033 6.98181 44.578 7.15977C45.2042 7.30289 45.8229 7.7209 46.4053 8.47134C47.6933 10.132 48.1545 12.0608 48.0826 14.0078C47.9955 16.3325 47.1421 18.6794 46.0364 20.599C45.1784 22.09 44.2833 23.3909 43.3421 24.4785C43.8488 25.1441 44.4129 25.6583 45.0157 26.0384C45.9115 26.6011 46.9172 26.8638 47.9197 26.8396C48.9405 26.8161 49.9605 26.4943 50.8563 25.8953C51.7483 25.2986 52.6131 24.4353 53.453 23.3335C53.3917 23.207 53.3318 23.0767 53.272 22.9442C52.4269 21.0465 51.7923 18.562 51.4554 15.3973C51.2183 13.1702 51.3251 10.7705 51.6727 8.5979C52.0415 6.29427 52.6859 4.22851 53.4879 2.86626C53.8824 2.19305 54.3632 1.67358 54.8941 1.35174C55.278 1.11851 55.6869 0.988255 56.1102 0.975383C56.5373 0.962509 56.966 1.07155 57.3824 1.31539C57.8641 1.59784 58.323 2.06659 58.7357 2.7451C59.995 4.82075 60.3948 7.21587 60.2722 9.63853C60.1169 12.6623 59.1431 15.7253 58.0178 18.2274C57.106 20.2539 56.1526 22.0092 55.15 23.4564C55.8687 24.7051 56.7024 25.5586 57.605 26.0766C58.7122 26.7119 59.9504 26.8043 61.2149 26.4999C62.5848 26.1705 63.9902 25.3799 65.3094 24.3C65.0451 23.8441 64.8013 23.3466 64.5802 22.8036C64.0735 21.5625 63.6866 20.0821 63.4496 18.3418C63.046 15.3816 63.6449 12.0216 64.7309 9.80889C65.1557 8.94258 65.6646 8.23454 66.2272 7.76581C66.886 7.21907 67.6183 6.98204 68.393 7.16C69.0193 7.30313 69.6379 7.72113 70.2203 8.47158C71.5084 10.1322 71.9695 12.0611 71.8976 14.008C71.8105 16.3327 70.9571 18.6796 69.8514 20.5992C69.3433 21.4837 68.8238 22.2985 68.2915 23.0383C67.9189 23.5555 67.5425 24.0371 67.1571 24.4824C67.3237 24.7013 67.4956 24.902 67.6743 25.0882C68.6981 26.1575 69.8854 26.655 71.1281 26.758C72.6646 26.8845 74.3033 26.418 75.8398 25.6744C76.3192 25.4426 76.7841 25.1625 77.2347 24.8224C77.034 24.4423 76.8508 24.0281 76.6864 23.5813C76.3517 22.6711 76.0928 21.6057 75.9246 20.3751C75.6005 17.9995 76.0821 15.3014 76.9545 13.5233C77.2998 12.8176 77.7163 12.239 78.1798 11.8551C78.7386 11.3916 79.3611 11.1932 80.0252 11.3432C80.5553 11.4643 81.0748 11.8134 81.5594 12.4382C82.6052 13.7846 82.9778 15.3476 82.9202 16.9256C82.8498 18.7945 82.1637 20.6801 81.2792 22.2218C80.5969 23.4085 79.873 24.3498 79.1119 25.1024L79.1588 25.1622C79.9494 26.1626 80.8074 26.6245 81.7298 26.7487C82.7089 26.8804 83.807 26.6548 84.9921 26.2875C85.3593 26.1732 85.716 26.0376 86.0613 25.8748C85.6668 25.2341 85.3684 24.4564 85.1912 23.5266C84.9595 22.3074 85.1988 20.9595 85.7084 19.9152C85.9924 19.3344 86.3672 18.8316 86.8034 18.4787C87.2971 18.0773 87.8659 17.8653 88.4754 17.9213C88.9586 17.9667 89.4379 18.1803 89.8923 18.5983C90.8207 19.454 91.1516 20.4604 91.0994 21.4827C91.038 22.6535 90.4534 23.8166 89.6969 24.758C89.2464 25.3206 88.7723 25.7894 88.2748 26.1839C88.948 26.6633 89.7727 26.8821 90.6488 26.9025C90.7646 26.904 92.2352 26.9063 93.4386 26.9041C94.2201 26.9025 94.8857 26.9003 94.9675 26.895C94.9819 26.8935 94.9986 26.8935 95.013 26.8935V26.8919H106.611C107.011 26.8919 107.335 27.216 107.335 27.6159C107.335 28.0157 107.011 28.3398 106.611 28.3398H95.013V28.3383C94.8282 28.3421 94.1845 28.3459 93.4386 28.3459C92.2247 28.3474 90.7389 28.3459 90.6216 28.3444C89.2828 28.3156 88.0181 27.9158 87.017 27.0214L87.0079 27.0139C86.4938 27.2872 85.9659 27.4985 85.4192 27.6674C84.0569 28.0892 82.7688 28.3459 81.5397 28.1793C80.2554 28.0059 79.0824 27.3887 78.0299 26.0552L78.0193 26.0408C77.5165 26.4119 76.9985 26.7193 76.4669 26.976C74.7191 27.8226 72.8297 28.3512 71.0154 28.2012C69.4395 28.0725 67.9326 27.441 66.6346 26.0839C66.4589 25.8992 66.287 25.7038 66.1204 25.4955C64.6695 26.6647 63.1028 27.5258 61.5444 27.8998C59.9306 28.289 58.3329 28.1603 56.8834 27.3295C55.9028 26.7669 55.0001 25.9036 54.2147 24.695C53.3969 25.6923 52.5465 26.495 51.6581 27.0901C50.5328 27.8444 49.2448 28.248 47.9467 28.279C46.6692 28.3101 45.3864 27.9754 44.2444 27.2567C43.5553 26.8243 42.9124 26.2541 42.3338 25.5362C41.9703 25.8853 41.5993 26.2041 41.2229 26.4881C39.4138 27.858 37.4487 28.4963 35.292 28.2813C34.4847 28.2018 33.7881 28.0299 33.1421 27.7111C32.4871 27.3908 31.9062 26.9349 31.3383 26.289C31.2603 26.2004 31.1831 26.108 31.1088 26.0118C30.2478 26.6449 29.3429 27.0917 28.3964 27.4249C27.3665 27.7868 25.9504 28.1397 24.57 28.2647C23.4576 28.3639 22.3573 28.3154 21.4667 28.0042C20.8442 27.7868 20.2672 27.4597 19.7621 27.0053C19.6826 27.047 19.6031 27.0886 19.5235 27.1265C18.4831 27.6369 17.3797 27.9133 16.2068 28.0981C15.242 28.248 14.3265 28.2518 13.417 28.2533C12.7635 28.2548 12.116 28.2571 11.4701 28.3184C11.4284 28.326 11.3852 28.329 11.3413 28.329H1.38415L1.38899 28.3372ZM20.0524 25.1181C20.4954 24.7759 20.9209 24.3601 21.3299 23.8512C21.9183 23.1182 22.3718 22.2443 22.4158 21.4082C22.4483 20.7948 22.2439 20.1868 21.6737 19.6605C21.4639 19.4666 21.2723 19.3727 21.1019 19.3568H21.0982C20.8937 19.3371 20.6786 19.4295 20.4719 19.5976C20.2061 19.8127 19.9638 20.1459 19.7684 20.5472C19.3814 21.3401 19.1982 22.3533 19.3701 23.2597C19.5132 24.0086 19.7464 24.6243 20.0524 25.1195L20.0524 25.1181ZM31.4385 23.8043C32.0231 23.1856 32.5857 22.4291 33.1226 21.4991C33.9079 20.1406 34.5137 18.492 34.5735 16.8799C34.6205 15.6167 34.3274 14.374 33.5111 13.3193C33.2468 12.9792 33.0083 12.7983 32.7962 12.7513C32.6084 12.7081 32.404 12.7892 32.1935 12.9633C31.8898 13.2148 31.5998 13.6312 31.3415 14.1576C30.5797 15.7099 30.1617 18.0816 30.448 20.1823C30.6093 21.3712 30.8622 22.3807 31.1931 23.2311C31.2711 23.4303 31.3521 23.6219 31.4392 23.8044L31.4385 23.8043ZM42.5369 23.1985C43.3146 22.2542 44.0643 21.1432 44.7874 19.8839C45.7878 18.1414 46.5639 16.0302 46.6404 13.9598C46.7018 12.3279 46.3239 10.721 45.2637 9.35483C44.9017 8.88837 44.5632 8.63847 44.2558 8.56804C43.9574 8.49913 43.6424 8.61726 43.3327 8.87397C42.9291 9.20868 42.5459 9.75542 42.2089 10.443C41.2336 12.4293 40.6982 15.4659 41.064 18.1512C41.3411 20.1906 41.8401 21.833 42.4967 23.1233L42.5368 23.2013L42.5369 23.1985ZM54.4191 21.9467C55.2059 20.7124 55.9662 19.2692 56.7008 17.6334C57.7663 15.267 58.6871 12.381 58.8325 9.56401C58.943 7.40578 58.5993 5.28845 57.5065 3.49002C57.2263 3.02658 56.9386 2.72292 56.6561 2.55783C56.4842 2.45636 56.3138 2.41092 56.1533 2.41698C55.9867 2.42228 55.8148 2.48059 55.6429 2.58358C55.3211 2.77895 55.0098 3.12654 54.7349 3.59529C54.0239 4.80388 53.4431 6.69102 53.1008 8.82425C52.7714 10.878 52.6699 13.1452 52.8948 15.2458C53.1916 18.0287 53.7202 20.2377 54.4184 21.9475L54.4191 21.9467ZM66.3534 23.2008C66.6139 22.8842 66.8706 22.5495 67.1243 22.1966C67.6309 21.4932 68.1247 20.7185 68.6063 19.8824C69.6066 18.1399 70.3828 16.0286 70.4593 13.9582C70.5206 12.3263 70.1428 10.7194 69.0826 9.3533C68.7206 8.88684 68.3821 8.63694 68.0747 8.56651C67.7763 8.4976 67.4613 8.61573 67.1516 8.87244C66.748 9.20715 66.3648 9.75389 66.0278 10.4415C65.0525 12.4278 64.5171 15.4644 64.8828 18.1497C65.1017 19.7581 65.4584 21.1204 65.9233 22.2609C66.0589 22.5941 66.2035 22.9068 66.3557 23.2014L66.3534 23.2008ZM78.3516 23.8195C78.9377 23.197 79.4988 22.4352 80.0342 21.5015C80.818 20.1392 81.4238 18.4868 81.4836 16.8731C81.5305 15.6123 81.239 14.3712 80.4234 13.3193C80.1591 12.9793 79.9206 12.7983 79.7086 12.7513C79.5208 12.7082 79.3163 12.7892 79.1058 12.9634C78.8021 13.2148 78.5121 13.6313 78.2539 14.1576C77.4921 15.71 77.0741 18.0817 77.3603 20.1823C77.5125 21.3008 77.7458 22.2632 78.0479 23.0842C78.1441 23.3447 78.2448 23.5893 78.3516 23.8188V23.8195ZM87.2985 25.1189C87.74 24.7766 88.1671 24.3609 88.576 23.8505C89.1644 23.1175 89.618 22.2436 89.6619 21.4075C89.6945 20.7941 89.49 20.186 88.9198 19.6597C88.7101 19.4659 88.5185 19.372 88.3481 19.3561H88.3443C88.1399 19.3364 87.9248 19.4288 87.7181 19.5969C87.4523 19.812 87.2099 20.1451 87.0146 20.5465C86.6276 21.3393 86.4443 22.3526 86.6162 23.259C86.7594 24.0079 86.9926 24.6237 87.2985 25.1189Z" fill="white"/>
</svg>
