<svg width="98" height="29" viewBox="0 0 98 29" fill="none" xmlns="http://www.w3.org/2000/svg">
<path d="M0.88574 12.3154C0.498989 12.3206 0.181355 12.0132 0.174014 11.6265C0.168867 11.2397 0.476213 10.9221 0.862964 10.9147C4.6437 10.853 7.44716 13.283 9.95604 15.458C10.6604 16.069 11.342 16.6594 11.9906 17.1461C12.5582 17.5711 13.0413 17.9314 13.528 18.1652C13.9809 18.3829 14.4714 18.5027 15.1074 18.4851H15.1405H15.1441C15.7625 18.5012 16.2419 18.3851 16.6882 18.1741C17.1712 17.9454 17.6455 17.5976 18.1991 17.1866C18.8719 16.6874 19.5675 16.083 20.2894 15.458C22.7966 13.2845 25.5965 10.8568 29.3721 10.9147C33.1478 10.8589 35.9477 13.2868 38.4548 15.458C39.1769 16.0837 39.8724 16.6881 40.5451 17.1866C41.1002 17.5976 41.5745 17.9476 42.0561 18.1741C42.5024 18.3851 42.984 18.5005 43.6038 18.4851H43.6369H43.6406C44.2751 18.5012 44.7633 18.3814 45.2162 18.1652C45.703 17.9314 46.186 17.5711 46.7537 17.1461C47.4022 16.6594 48.0838 16.069 48.7882 15.458C51.2954 13.2845 54.0953 10.8568 57.8709 10.9147C61.6466 10.8589 64.4465 13.2868 66.9537 15.458C67.658 16.069 68.3396 16.6594 68.9882 17.1461C69.5558 17.5711 70.0389 17.9314 70.5257 18.1652C70.9786 18.3829 71.469 18.5027 72.105 18.4851H72.1381H72.1418C72.7601 18.5012 73.2395 18.3851 73.6858 18.1741C74.1689 17.9454 74.6431 17.5976 75.1968 17.1866C75.8695 16.6874 76.5651 16.083 77.287 15.458C79.7942 13.2845 82.5941 10.8568 86.3697 10.9147C90.1454 10.8589 92.9453 13.2868 95.4525 15.458C96.1745 16.0837 96.8701 16.6881 97.5427 17.1866C97.8537 17.4167 97.9185 17.8557 97.6883 18.1667C97.4582 18.4777 97.0192 18.5424 96.7082 18.3123C95.9913 17.78 95.2767 17.1601 94.5348 16.5168C92.2158 14.5072 89.6247 12.2604 86.38 12.3125H86.3572C83.1125 12.2596 80.5214 14.505 78.2024 16.5168C77.4613 17.1594 76.7459 17.7799 76.029 18.3123C75.4106 18.7711 74.8798 19.1608 74.2813 19.4416C73.6504 19.7387 72.9762 19.9056 72.1189 19.8843C71.2461 19.9056 70.5623 19.7335 69.9196 19.4255C69.3086 19.1321 68.7726 18.7336 68.1469 18.2645C67.444 17.7373 66.7521 17.1381 66.0352 16.5168C63.7162 14.5072 61.1251 12.2604 57.8804 12.3125H57.8576C54.613 12.2596 52.0219 14.505 49.7029 16.5168C48.986 17.1388 48.2941 17.738 47.5912 18.2645C46.964 18.7336 46.4302 19.1321 45.8184 19.4255C45.1773 19.7328 44.492 19.9049 43.6192 19.8843C42.7619 19.9056 42.0876 19.7387 41.4568 19.4416C40.8576 19.1586 40.3275 18.7703 39.7091 18.3123C38.9922 17.78 38.2776 17.1601 37.5357 16.5168C35.2167 14.5072 32.6256 12.2604 29.3809 12.3125H29.3581C26.1134 12.2596 23.5223 14.505 21.2033 16.5168C20.4622 17.1594 19.7468 17.7799 19.0299 18.3123C18.4115 18.7711 17.8807 19.1608 17.2821 19.4416C16.6513 19.7387 15.9771 19.9056 15.1198 19.8843C14.247 19.9056 13.5632 19.7335 12.9205 19.4255C12.3095 19.1321 11.7735 18.7336 11.1478 18.2645C10.4449 17.7373 9.75302 17.1381 9.0361 16.5168C6.71714 14.5072 4.126 12.2604 0.881335 12.3125L0.88574 12.3154ZM91.5473 16.6461C91.9024 16.7991 92.0657 17.2116 91.9127 17.5652C91.7598 17.9203 91.3473 18.0836 90.9937 17.9306C90.2841 17.6233 89.6253 17.5233 89.0841 17.516C89.0525 17.5211 89.0194 17.5248 88.9856 17.5262C85.6562 17.6424 85.5423 21.1959 85.435 24.5355C85.4277 24.7671 85.4211 24.9972 85.4122 25.2045C85.4137 25.245 85.4108 25.2854 85.4049 25.3273C85.2799 26.1655 84.9373 26.8648 84.4601 27.4176C83.9557 28.0029 83.302 28.419 82.5962 28.6617C81.897 28.9006 81.1433 28.9712 80.4286 28.8639C79.6926 28.7528 78.9897 28.458 78.4221 27.9676C78.3258 27.8852 78.2361 27.7992 78.1515 27.7132C77.2854 26.8191 76.9412 25.6647 77.0398 24.4787C77.1332 23.3434 77.639 22.1772 78.4838 21.1986C78.614 21.0494 78.7493 20.9038 78.8934 20.7648C79.7015 19.9832 80.7977 19.2274 82.0065 18.5569C83.3255 17.8246 84.7821 17.1886 86.1452 16.7232C86.3511 16.6526 86.5842 16.5776 86.843 16.4982C87.0922 16.4224 87.3194 16.3577 87.5194 16.3033C87.8091 16.2261 88.3576 16.1122 89.0635 16.1173C89.7664 16.1224 90.6289 16.2474 91.5509 16.6482L91.5473 16.6461ZM84.863 18.7159C84.1196 19.0335 83.38 19.3938 82.6829 19.7805C81.5764 20.3952 80.5816 21.0768 79.8669 21.7693C79.7507 21.8818 79.6419 21.998 79.5404 22.1156C78.8941 22.8656 78.5074 23.7457 78.4368 24.5942C78.3721 25.392 78.5934 26.1559 79.1537 26.7361C79.2117 26.7956 79.2728 26.8537 79.336 26.9081C79.6926 27.2155 80.1455 27.4037 80.6293 27.4757C81.1286 27.5493 81.655 27.5022 82.144 27.3331C82.6234 27.1677 83.0645 26.8905 83.3998 26.5C83.7057 26.1449 83.9248 25.6934 84.0108 25.1457C84.0196 24.9141 84.027 24.7008 84.0336 24.4906C84.1005 22.4332 84.1674 20.3091 84.8608 18.7142L84.863 18.7159ZM61.9839 16.6461C62.3391 16.7991 62.5023 17.2116 62.3494 17.5652C62.1964 17.9203 61.784 18.0836 61.4303 17.9306C60.7208 17.6233 60.062 17.5233 59.5207 17.516C59.4891 17.5211 59.456 17.5248 59.4222 17.5262C56.0928 17.6424 55.979 21.1959 55.8717 24.5355C55.8643 24.7671 55.8577 24.9972 55.8489 25.2045C55.8504 25.245 55.8474 25.2854 55.8415 25.3273C55.7165 26.1655 55.3739 26.8648 54.8967 27.4176C54.3923 28.0029 53.7387 28.419 53.0328 28.6617C52.3336 28.9006 51.58 28.9712 50.8652 28.8639C50.1292 28.7528 49.4263 28.458 48.8587 27.9676C48.7624 27.8852 48.6727 27.7992 48.5881 27.7132C47.722 26.8191 47.3779 25.6647 47.4764 24.4787C47.5698 23.3434 48.0757 22.1772 48.9205 21.1986C49.0506 21.0494 49.1859 20.9038 49.33 20.7648C50.1381 19.9832 51.2343 19.2274 52.4431 18.5569C53.7622 17.8246 55.2187 17.1886 56.5819 16.7232C56.7878 16.6526 57.0208 16.5776 57.2796 16.4982C57.5289 16.4224 57.7561 16.3577 57.9561 16.3033C58.2458 16.2261 58.7943 16.1122 59.5001 16.1173C60.203 16.1224 61.0655 16.2474 61.9876 16.6482L61.9839 16.6461ZM55.2996 18.7159C54.5563 19.0335 53.8166 19.3938 53.1196 19.7805C52.013 20.3952 51.0182 21.0768 50.3035 21.7693C50.1873 21.8818 50.0785 21.998 49.977 22.1156C49.3307 22.8656 48.944 23.7457 48.8734 24.5942C48.8087 25.392 49.03 26.1559 49.5903 26.7361C49.6484 26.7956 49.7094 26.8537 49.7726 26.9081C50.1292 27.2155 50.5822 27.4037 51.066 27.4757C51.5652 27.5493 52.0917 27.5022 52.5806 27.3331C53.06 27.1677 53.5012 26.8905 53.8364 26.5C54.1423 26.1449 54.3614 25.6934 54.4475 25.1457C54.4563 24.9141 54.4636 24.7008 54.4702 24.4906C54.5372 22.4332 54.6041 20.3091 55.2974 18.7142L55.2996 18.7159ZM76.1458 11.6007C76.5009 11.4478 76.9119 11.611 77.0649 11.9661C77.2178 12.3213 77.0546 12.7323 76.6995 12.8852C75.7774 13.2859 74.9142 13.4102 74.212 13.4161C73.504 13.4212 72.9577 13.305 72.668 13.23C72.468 13.1771 72.2408 13.1124 71.9915 13.0352C71.7334 12.9558 71.4996 12.8808 71.2938 12.8102C69.9321 12.3463 68.4741 11.7088 67.155 10.9765C65.9462 10.3052 64.85 9.55005 64.0419 8.76855C63.8993 8.62958 63.7625 8.48547 63.6324 8.33474C62.789 7.35611 62.2832 6.18989 62.1883 5.05469C62.0898 3.86871 62.4346 2.71427 63.3 1.82019C63.3846 1.73417 63.4743 1.64814 63.5706 1.56578C64.1397 1.07536 64.8404 0.779049 65.5771 0.669501C66.2918 0.562153 67.0476 0.632739 67.7447 0.871696C68.4513 1.11434 69.1043 1.53049 69.6086 2.11576C70.0866 2.67088 70.4292 3.37013 70.5534 4.20603C70.5586 4.24794 70.5623 4.28838 70.5608 4.32882C70.5681 4.5347 70.5748 4.76629 70.5836 4.99791C70.6909 8.33744 70.8049 11.8917 74.1341 12.0071C74.1672 12.0086 74.201 12.0123 74.2326 12.0174C74.7738 12.0101 75.4326 11.9101 76.1422 11.6027L76.1458 11.6007ZM67.8359 9.75226C68.5315 10.139 69.2712 10.4971 70.016 10.8169C69.3219 9.2236 69.2535 7.09791 69.1888 5.04059C69.1815 4.8281 69.1749 4.61708 69.166 4.38546C69.08 3.83768 68.8602 3.38551 68.555 3.03111C68.2198 2.64289 67.7801 2.36349 67.2992 2.19805C66.811 2.03115 66.2838 1.98189 65.7845 2.05541C65.3 2.12747 64.8478 2.31569 64.4912 2.62303C64.428 2.67744 64.3662 2.73553 64.3089 2.79508C63.7486 3.37447 63.5251 4.13914 63.592 4.93692C63.6626 5.78541 64.0486 6.66553 64.6956 7.4155C64.7978 7.53314 64.9066 7.64931 65.0221 7.7618C65.7368 8.45589 66.7316 9.13527 67.8382 9.75061L67.8359 9.75226ZM47.6053 11.6007C47.9604 11.4478 48.3714 11.611 48.5243 11.9661C48.6773 12.3213 48.5141 12.7323 48.1589 12.8852C47.2369 13.2859 46.3737 13.4102 45.6715 13.4161C44.9634 13.4212 44.4171 13.305 44.1274 13.23C43.9275 13.1771 43.7003 13.1124 43.451 13.0352C43.1929 12.9558 42.9591 12.8808 42.7532 12.8102C41.3915 12.3463 39.9336 11.7088 38.6145 10.9765C37.4057 10.3052 36.3095 9.55005 35.5014 8.76855C35.3588 8.62958 35.222 8.48547 35.0919 8.33474C34.2485 7.35611 33.7426 6.18989 33.6478 5.05469C33.5493 3.86871 33.8941 2.71427 34.7595 1.82019C34.8441 1.73417 34.9338 1.64814 35.0301 1.56578C35.5992 1.07536 36.2999 0.779049 37.0366 0.669501C37.7513 0.562153 38.5071 0.632739 39.2042 0.871696C39.9108 1.11434 40.5637 1.53049 41.0681 2.11576C41.546 2.67088 41.8887 3.37013 42.0129 4.20603C42.0181 4.24794 42.0217 4.28838 42.0203 4.32882C42.0276 4.5347 42.0342 4.76629 42.0431 4.99791C42.1504 8.33744 42.2644 11.8917 45.5936 12.0071C45.6267 12.0086 45.6605 12.0123 45.6921 12.0174C46.2333 12.0101 46.8921 11.9101 47.6017 11.6027L47.6053 11.6007ZM39.2954 9.75226C39.991 10.139 40.7306 10.4971 41.4755 10.8169C40.7814 9.2236 40.713 7.09791 40.6483 5.04059C40.6409 4.8281 40.6343 4.61708 40.6255 4.38546C40.5395 3.83768 40.3196 3.38551 40.0145 3.03111C39.6792 2.64289 39.2395 2.36349 38.7587 2.19805C38.2704 2.03115 37.7433 1.98189 37.244 2.05541C36.7595 2.12747 36.3073 2.31569 35.9507 2.62303C35.8875 2.67744 35.8257 2.73553 35.7683 2.79508C35.2081 3.37447 34.9845 4.13914 35.0515 4.93692C35.122 5.78541 35.5081 6.66553 36.1551 7.4155C36.2573 7.53314 36.3661 7.64931 36.4816 7.7618C37.1962 8.45589 38.191 9.13527 39.2976 9.75061L39.2954 9.75226ZM33.1919 16.6461C33.5471 16.799 33.7103 17.2115 33.5574 17.5652C33.4044 17.9203 32.992 18.0835 32.6383 17.9306C31.9288 17.6232 31.27 17.5232 30.7287 17.5159C30.6971 17.521 30.664 17.5247 30.6302 17.5262C27.3008 17.6424 27.187 21.1959 27.0797 24.5354C27.0723 24.767 27.0657 24.9971 27.0569 25.2045C27.0584 25.2449 27.0554 25.2854 27.0495 25.3273C26.9245 26.1655 26.5819 26.8647 26.1047 27.4175C25.6003 28.0028 24.9467 28.419 24.2408 28.6616C23.5416 28.9006 22.7879 28.9712 22.0732 28.8638C21.3372 28.7528 20.6343 28.458 20.0667 27.9675C19.9704 27.8852 19.8807 27.7991 19.7961 27.7131C18.93 26.819 18.5859 25.6646 18.6844 24.4786C18.7778 23.3434 19.2837 22.1772 20.1285 21.1986C20.2586 21.0493 20.3939 20.9037 20.538 20.7648C21.3461 19.9832 22.4423 19.2273 23.6511 18.5569C24.9702 17.8245 26.4267 17.1885 27.7899 16.7231C27.9957 16.6525 28.2288 16.5775 28.4876 16.4981C28.7369 16.4224 28.9641 16.3577 29.1641 16.3033C29.4538 16.2261 30.0023 16.1121 30.7081 16.1172C31.411 16.1224 32.2735 16.2474 33.1955 16.6481L33.1919 16.6461ZM26.5076 18.7158C25.7643 19.0335 25.0246 19.3937 24.3276 19.7805C23.221 20.3952 22.2262 21.0767 21.5115 21.7693C21.3953 21.8818 21.2865 21.9979 21.185 22.1156C20.5387 22.8656 20.152 23.7457 20.0814 24.5942C20.0167 25.3919 20.238 26.1559 20.7983 26.736C20.8564 26.7956 20.9174 26.8537 20.9806 26.9081C21.3372 27.2154 21.7902 27.4036 22.274 27.4757C22.7732 27.5492 23.2997 27.5021 23.7886 27.333C24.268 27.1676 24.7092 26.8904 25.0444 26.5C25.3503 26.1449 25.5694 25.6934 25.6554 25.1456C25.6643 24.914 25.6716 24.7008 25.6782 24.4905C25.7452 22.4332 25.8121 20.309 26.5054 18.7142L26.5076 18.7158ZM18.6881 11.6007C19.0432 11.4477 19.4542 11.6109 19.6072 11.9661C19.7601 12.3212 19.5969 12.7322 19.2417 12.8851C18.3197 13.2859 17.4565 13.4101 16.7543 13.416C16.0463 13.4212 15.5 13.305 15.2103 13.23C15.0103 13.177 14.7831 13.1123 14.5338 13.0351C14.2757 12.9557 14.0419 12.8807 13.8361 12.8101C12.4744 12.3462 11.0164 11.7087 9.69732 10.9764C8.48854 10.3051 7.39229 9.54999 6.58423 8.76849C6.44159 8.62952 6.30482 8.48541 6.17468 8.33468C5.33133 7.35605 4.82547 6.18983 4.73062 5.05463C4.6321 3.86865 4.97694 2.71422 5.84233 1.82014C5.92689 1.73411 6.01659 1.64808 6.11291 1.56573C6.68199 1.0753 7.38271 0.778992 8.11941 0.669444C8.83409 0.562096 9.58994 0.632682 10.287 0.871638C10.9936 1.11428 11.6465 1.53043 12.1509 2.11571C12.6288 2.67083 12.9715 3.37007 13.0957 4.20597C13.1009 4.24788 13.1045 4.28832 13.1031 4.32876C13.1104 4.53464 13.117 4.76624 13.1259 4.99785C13.2332 8.33738 13.3472 11.8917 16.6764 12.0071C16.7095 12.0085 16.7433 12.0122 16.7749 12.0174C17.3161 12.01 17.9749 11.91 18.6845 11.6027L18.6881 11.6007ZM10.3782 9.7522C11.0738 10.1389 11.8135 10.497 12.5583 10.8168C11.8642 9.22354 11.7958 7.09786 11.7311 5.04053C11.7238 4.82804 11.7171 4.61702 11.7083 4.38541C11.6223 3.83763 11.4025 3.38545 11.0973 3.03105C10.762 2.64284 10.3224 2.36343 9.84149 2.198C9.35326 2.03109 8.82609 1.98184 8.32684 2.05536C7.8423 2.12741 7.39011 2.31564 7.03351 2.62297C6.97028 2.67738 6.90852 2.73547 6.85116 2.79503C6.29089 3.37441 6.06737 4.13908 6.13428 4.93686C6.20487 5.78536 6.59088 6.66547 7.23791 7.41544C7.34012 7.53308 7.44894 7.64926 7.56438 7.76174C8.27906 8.45583 9.27386 9.13522 10.3804 9.75055L10.3782 9.7522Z" fill="white"/>
</svg>
