<svg width="34" height="34" viewBox="0 0 34 34" fill="none" xmlns="http://www.w3.org/2000/svg">
<path d="M16.801 5.72534C13.7593 5.72534 13.3775 5.73864 12.1828 5.79301C10.9905 5.84761 10.1766 6.03638 9.46448 6.31335C8.72784 6.59942 8.10297 6.98209 7.48043 7.60486C6.85742 8.2274 6.47475 8.85227 6.18775 9.58868C5.91008 10.3011 5.72108 11.1152 5.66741 12.307C5.61398 13.5017 5.59998 13.8837 5.59998 16.9255C5.59998 19.9672 5.61351 20.3478 5.66764 21.5425C5.72248 22.7348 5.91125 23.5487 6.18798 24.2608C6.47428 24.9975 6.85696 25.6223 7.47973 26.2449C8.10203 26.8679 8.72691 27.2515 9.46308 27.5376C10.1757 27.8145 10.9898 28.0033 12.1819 28.0579C13.3766 28.1123 13.7581 28.1256 16.7996 28.1256C19.8416 28.1256 20.2222 28.1123 21.4169 28.0579C22.6092 28.0033 23.424 27.8145 24.1366 27.5376C24.873 27.2515 25.497 26.8679 26.1193 26.2449C26.7423 25.6223 27.125 24.9975 27.412 24.2611C27.6873 23.5487 27.8763 22.7346 27.9323 21.5427C27.986 20.348 28 19.9672 28 16.9255C28 13.8837 27.986 13.502 27.9323 12.3073C27.8763 11.1149 27.6873 10.3011 27.412 9.58891C27.125 8.85227 26.7423 8.2274 26.1193 7.60486C25.4963 6.98185 24.8733 6.59918 24.1359 6.31335C23.4219 6.03638 22.6076 5.84761 21.4152 5.79301C20.2206 5.73864 19.8402 5.72534 16.7975 5.72534H16.801ZM15.7963 7.7437C16.0945 7.74323 16.4272 7.7437 16.801 7.7437C19.7915 7.7437 20.1459 7.75443 21.3268 7.8081C22.4188 7.85803 23.0115 8.0405 23.4063 8.1938C23.929 8.3968 24.3016 8.63947 24.6934 9.03148C25.0854 9.42348 25.328 9.79682 25.5315 10.3195C25.6848 10.7138 25.8675 11.3065 25.9172 12.3985C25.9709 13.5792 25.9826 13.9339 25.9826 16.9229C25.9826 19.9119 25.9709 20.2666 25.9172 21.4473C25.8673 22.5393 25.6848 23.132 25.5315 23.5263C25.3285 24.049 25.0854 24.4211 24.6934 24.8129C24.3014 25.2049 23.9292 25.4476 23.4063 25.6506C23.012 25.8046 22.4188 25.9866 21.3268 26.0365C20.1461 26.0902 19.7915 26.1019 16.801 26.1019C13.8104 26.1019 13.4559 26.0902 12.2752 26.0365C11.1832 25.9861 10.5906 25.8036 10.1955 25.6503C9.67285 25.4473 9.29951 25.2047 8.90751 24.8127C8.51551 24.4207 8.27284 24.0483 8.06937 23.5254C7.91607 23.131 7.73336 22.5383 7.68366 21.4463C7.63 20.2657 7.61926 19.911 7.61926 16.9201C7.61926 13.9292 7.63 13.5764 7.68366 12.3957C7.7336 11.3037 7.91607 10.711 8.06937 10.3162C8.27237 9.79355 8.51551 9.42021 8.90751 9.02821C9.29951 8.6362 9.67285 8.39354 10.1955 8.19007C10.5903 8.03607 11.1832 7.85406 12.2752 7.8039C13.3085 7.75723 13.7089 7.74323 15.7963 7.7409V7.7437ZM22.7796 9.60338C22.0375 9.60338 21.4355 10.2047 21.4355 10.9469C21.4355 11.6889 22.0375 12.2909 22.7796 12.2909C23.5216 12.2909 24.1236 11.6889 24.1236 10.9469C24.1236 10.2049 23.5216 9.60292 22.7796 9.60292V9.60338ZM16.801 11.1737C13.6246 11.1737 11.0493 13.7491 11.0493 16.9255C11.0493 20.1019 13.6246 22.676 16.801 22.676C19.9774 22.676 22.5518 20.1019 22.5518 16.9255C22.5518 13.7491 19.9772 11.1737 16.8008 11.1737H16.801ZM16.801 13.1921C18.8628 13.1921 20.5344 14.8635 20.5344 16.9255C20.5344 18.9872 18.8628 20.6588 16.801 20.6588C14.739 20.6588 13.0677 18.9872 13.0677 16.9255C13.0677 14.8635 14.739 13.1921 16.801 13.1921V13.1921Z" fill="white"/>
</svg>
