<svg width="35" height="34" viewBox="0 0 35 34" fill="none" xmlns="http://www.w3.org/2000/svg">
<path d="M5.78345 24.1568C8.2843 24.2975 10.4712 23.7129 12.6039 22.1647C10.4495 21.7966 8.95553 20.8115 8.14356 18.7761C8.77148 18.6895 9.32362 18.8519 9.97319 18.5921C7.85126 17.661 6.47633 16.2645 6.4222 13.8502C7.09342 13.9044 7.60226 14.3482 8.40339 14.2833C6.45468 12.3779 5.85923 10.2992 7.08259 7.77673C9.11791 10.1152 11.4997 11.7066 14.4119 12.4536C14.5743 12.4969 14.7259 12.5403 14.8883 12.5727C15.6353 12.7459 16.523 13.114 16.9777 13.0599C17.7572 12.9625 16.9777 12.0639 17.1726 10.8947C17.7897 7.25707 21.7954 5.60066 24.7618 7.73342C25.6279 8.36134 26.3099 8.35051 27.1652 7.9716C27.609 7.77673 28.0638 7.58185 28.5942 7.3545C28.4752 8.39382 27.674 8.96761 27.0353 9.73627C27.7606 9.89866 28.3452 9.69296 29.0165 9.47644C28.7891 10.2234 28.2261 10.6457 27.7173 11.0571C27.1868 11.4793 26.9811 11.9232 26.9595 12.616C26.6347 23.1066 14.7151 31.2154 6.56294 24.763C5.77263 24.1351 6.54128 24.763 5.78345 24.1568Z" fill="white"/>
</svg>
